<?xml version="1.0" encoding="UTF-8"?>
<svg id="Calque_2" data-name="Calque 2" xmlns="http://www.w3.org/2000/svg" viewBox="0 0 274.05 103.83">
  <defs>
    <style>
      .cls-1 {
        fill: #1d1d1b;
      }
    </style>
  </defs>
  <g id="Calque_1-2" data-name="Calque 1">
    <g>
      <path class="cls-1" d="M29.1,0c4.83,0,9.07,1.03,12.71,3.08,3.64,2.06,6.67,4.77,9.09,8.16,2.42,3.38,4.24,7.23,5.46,11.54,1.22,4.31,1.84,8.7,1.84,13.18s-.61,8.87-1.84,13.18c-1.23,4.31-3.05,8.16-5.46,11.54-2.42,3.38-5.45,6.1-9.09,8.16-3.64,2.05-7.88,3.08-12.71,3.08s-9.07-1.03-12.71-3.08c-3.64-2.05-6.69-4.77-9.14-8.16-2.45-3.38-4.27-7.23-5.46-11.54-1.19-4.31-1.79-8.7-1.79-13.18s.6-8.87,1.79-13.18c1.19-4.31,3.01-8.16,5.46-11.54,2.45-3.38,5.49-6.1,9.14-8.16,3.64-2.05,7.88-3.08,12.71-3.08ZM29.1,70.83c3.58,0,6.72-.99,9.43-2.98,2.71-1.99,4.97-4.63,6.75-7.91s3.14-7.01,4.07-11.19c.93-4.18,1.39-8.44,1.39-12.78s-.46-8.6-1.39-12.78c-.93-4.18-2.28-7.91-4.07-11.19s-4.04-5.92-6.75-7.91c-2.72-1.99-5.86-2.98-9.43-2.98s-6.72.99-9.43,2.98c-2.72,1.99-4.97,4.63-6.75,7.91s-3.13,7.01-4.02,11.19c-.89,4.18-1.34,8.44-1.34,12.78s.45,8.6,1.34,12.78c.89,4.18,2.23,7.91,4.02,11.19s4.04,5.92,6.75,7.91c2.71,1.99,5.86,2.98,9.43,2.98Z"/>
      <path class="cls-1" d="M90.67,1.19c5.43,0,9.95.96,13.56,2.88,3.61,1.92,6.31,4.33,8.09,7.21s2.68,6.02,2.68,9.4-.89,6.52-2.68,9.4c-1.79,2.88-4.49,5.29-8.09,7.21-3.61,1.92-8.13,2.88-13.56,2.88h-13.01v18.2c.07,2.45.2,4.46.4,6.02.2,1.56.53,2.79.99,3.68.46.9,1.09,1.51,1.89,1.84.79.33,1.79.5,2.98.5v.3h-19.27v-.3c1.26,0,2.28-.18,3.08-.55.79-.36,1.42-1.04,1.89-2.04.46-.99.79-2.35.99-4.08.2-1.72.3-3.94.3-6.66V14.72c0-2.72-.1-4.94-.3-6.66-.2-1.72-.53-3.07-.99-4.03-.46-.96-1.09-1.62-1.89-1.99-.79-.36-1.82-.55-3.08-.55v-.3h26.02ZM90.67,39.09c3.77,0,6.9-.91,9.38-2.74,2.48-1.82,4.35-4.09,5.61-6.81,1.26-2.72,1.89-5.69,1.89-8.9s-.63-6.18-1.89-8.9c-1.26-2.72-3.13-4.99-5.61-6.81-2.48-1.82-5.61-2.74-9.38-2.74h-13.01v36.9h13.01Z"/>
      <path class="cls-1" d="M161.97,54.01c1.19,3.32,2.22,6.04,3.08,8.16.86,2.12,1.69,3.8,2.48,5.02.79,1.23,1.62,2.07,2.48,2.54.86.46,1.89.7,3.08.7v.3h-19.17v-.3c1.19,0,2.12-.28,2.78-.85.66-.56.99-1.56.99-2.98s-.3-3.35-.89-5.77c-.6-2.42-1.52-5.45-2.78-9.1l-14.5-43.77c-.13-.4-.4-.6-.79-.6s-.66.2-.79.6l-10.53,30.84c3.97.07,7.65.93,11.02,2.59,3.38,1.66,6.75,3.98,10.13,6.96l-.2.2c-2.38-1.46-4.92-2.59-7.6-3.38-2.68-.8-5.41-1.19-8.19-1.19-2.52,0-4.9.33-7.15.99-1.52,4.58-2.62,8.49-3.28,11.74-.66,3.25-.83,5.89-.5,7.91.33,2.02,1.16,3.5,2.48,4.43,1.32.93,3.18,1.39,5.56,1.39v.3h-14.5c-.07,0-.1-.07-.1-.2l8.74-25.07c-2.05.8-4.01,1.82-5.86,3.08l-2.88-7.26c3.91-1.52,7.58-2.35,11.02-2.49l12.81-36.71c.26-.73.66-1.26,1.19-1.59.53-.33,1.09-.5,1.69-.5s1.16.17,1.69.5c.53.33.93.86,1.19,1.59l17.28,51.93Z"/>
      <path class="cls-1" d="M204.29,69.63c2.91,0,5.36-.1,7.35-.3,1.99-.2,3.67-.6,5.06-1.19,1.39-.6,2.56-1.39,3.53-2.39.96-.99,1.84-2.29,2.63-3.88h.3v8.85h-46.87v-.3c1.26,0,2.28-.18,3.08-.55.79-.36,1.42-1.04,1.89-2.04.46-.99.79-2.35.99-4.08.2-1.72.3-3.94.3-6.66V14.72c0-2.72-.1-4.94-.3-6.66-.2-1.72-.53-3.08-.99-4.08-.46-.99-1.09-1.67-1.89-2.04-.79-.36-1.82-.55-3.08-.55v-.2h19.27v.2c-1.19,0-2.18.17-2.98.5-.79.33-1.42.93-1.89,1.79-.46.86-.79,2.07-.99,3.63-.2,1.56-.33,3.53-.4,5.92v56.4h15Z"/>
      <path class="cls-1" d="M255.18,69.63c2.91,0,5.36-.1,7.35-.3,1.99-.2,3.67-.6,5.06-1.19,1.39-.6,2.56-1.39,3.53-2.39.96-.99,1.84-2.29,2.63-3.88h.3v8.85h-46.87v-.3c1.26,0,2.28-.18,3.08-.55.79-.36,1.42-1.04,1.89-2.04.46-.99.79-2.35.99-4.08.2-1.72.3-3.94.3-6.66V14.72c0-2.72-.1-4.94-.3-6.66-.2-1.72-.53-3.08-.99-4.08-.46-.99-1.09-1.67-1.89-2.04-.79-.36-1.82-.55-3.08-.55v-.2h44.79v8.85h-.3c-.79-1.59-1.67-2.9-2.63-3.93-.96-1.03-2.14-1.82-3.53-2.39-1.39-.56-3.08-.96-5.06-1.19-1.99-.23-4.44-.35-7.35-.35h-12.91v33.22h22.44l-2.58,7.86h-.3c-1.13-2.32-2.88-4.03-5.26-5.12-2.38-1.09-5.99-1.64-10.82-1.64v-.1h-3.48v33.22h15Z"/>
    </g>
    <g>
      <path class="cls-1" d="M109.11,86.65h6.07c3.11,0,5.24,1.72,5.24,4.73s-2.11,4.85-5.41,4.85h-4.56v7.4h-1.33v-16.98ZM110.44,95.02h4.68c2.74,0,3.88-1.46,3.88-3.59,0-2.28-1.5-3.57-3.78-3.57h-4.78v7.16Z"/>
      <path class="cls-1" d="M126.28,97.77l-2.16,5.87h-1.33l6.24-16.98h1.55l6.5,16.98h-1.43l-2.21-5.87h-7.16ZM133,96.55c-1.89-5.05-2.86-7.47-3.2-8.61h-.02c-.41,1.29-1.5,4.29-3.03,8.61h6.26Z"/>
      <path class="cls-1" d="M143.82,95.7v7.93h-1.33v-16.98h6.09c3.35,0,5.12,1.8,5.12,4.46,0,2.16-1.29,3.57-3.18,3.98,1.75.41,2.91,1.55,2.91,4.44v.65c0,1.19-.1,2.79.22,3.45h-1.33c-.32-.73-.24-2.09-.24-3.54v-.44c0-2.79-.82-3.95-4.08-3.95h-4.17ZM143.82,94.49h4.1c2.98,0,4.37-1.12,4.37-3.35,0-2.09-1.36-3.28-4-3.28h-4.46v6.62Z"/>
      <path class="cls-1" d="M161.55,86.65v16.98h-1.31v-16.98h1.31Z"/>
      <path class="cls-1" d="M168.83,99.08c.51,2.26,2.01,3.59,4.8,3.59,3.11,0,4.29-1.55,4.29-3.4s-.85-3.11-4.59-4.03c-3.59-.9-5.14-2.06-5.14-4.51,0-2.23,1.63-4.32,5.26-4.32s5.31,2.28,5.53,4.34h-1.36c-.39-1.82-1.58-3.13-4.25-3.13-2.45,0-3.78,1.14-3.78,3.03s1.12,2.6,4.25,3.37c4.78,1.19,5.48,3.11,5.48,5.14,0,2.5-1.82,4.66-5.75,4.66-4.25,0-5.8-2.47-6.11-4.75h1.36Z"/>
    </g>
  </g>
</svg>