<?xml version="1.0" encoding="UTF-8"?>
<svg id="Calque_2" data-name="Calque 2" xmlns="http://www.w3.org/2000/svg" viewBox="0 0 267.16 321.67">
  <defs>
    <style>
      .cls-1 {
        fill: #1d1d1b;
      }

      .cls-2 {
        fill: #fff;
      }

      .cls-3 {
        font-family: LavishRegular, Lavish;
        font-size: 196.99px;
      }

      .cls-3, .cls-4 {
        fill: #f2f2f2;
      }
    </style>
  </defs>
  <g id="Calque_2-2" data-name="Calque 2">
    <g>
      <rect class="cls-1" width="267.16" height="290.99"/>
      <g>
        <text class="cls-3" transform="translate(69.46 196.19)"><tspan x="0" y="0">O</tspan></text>
        <path class="cls-4" d="M186.99,94.31s-12.71,13.52-28.15,17.3c-14.98,3.67-26.66.67-36.47-3.65l5.49-14.03s25.54,19.72,58.75,0l.38.38Z"/>
      </g>
    </g>
    <g>
      <path class="cls-2" d="M90.61,222.93h8.22c4.21,0,7.11,2.34,7.11,6.42s-2.86,6.58-7.34,6.58h-6.19v10.03h-1.81v-23.03ZM92.42,234.28h6.35c3.72,0,5.26-1.97,5.26-4.87,0-3.09-2.04-4.84-5.13-4.84h-6.48v9.71Z"/>
      <path class="cls-2" d="M113.9,238l-2.93,7.96h-1.81l8.45-23.03h2.11l8.82,23.03h-1.94l-2.99-7.96h-9.7ZM123.01,236.35c-2.57-6.84-3.88-10.13-4.34-11.68h-.03c-.56,1.74-2.04,5.82-4.11,11.68h8.49Z"/>
      <path class="cls-2" d="M137.69,235.2v10.76h-1.81v-23.03h8.26c4.54,0,6.94,2.43,6.94,6.05,0,2.93-1.74,4.84-4.31,5.4,2.37.56,3.95,2.11,3.95,6.02v.89c0,1.61-.13,3.78.3,4.67h-1.81c-.43-.99-.33-2.83-.33-4.8v-.59c0-3.78-1.12-5.36-5.53-5.36h-5.66ZM137.69,233.56h5.56c4.05,0,5.92-1.51,5.92-4.54,0-2.83-1.84-4.44-5.43-4.44h-6.05v8.98Z"/>
      <path class="cls-2" d="M161.74,222.93v23.03h-1.78v-23.03h1.78Z"/>
      <path class="cls-2" d="M171.61,239.78c.69,3.06,2.73,4.87,6.51,4.87,4.21,0,5.82-2.11,5.82-4.61s-1.15-4.21-6.22-5.46c-4.87-1.22-6.97-2.8-6.97-6.12,0-3.03,2.2-5.86,7.14-5.86s7.2,3.09,7.5,5.89h-1.84c-.53-2.47-2.14-4.24-5.76-4.24-3.32,0-5.13,1.55-5.13,4.11s1.51,3.52,5.76,4.57c6.48,1.61,7.44,4.21,7.44,6.97,0,3.39-2.47,6.32-7.8,6.32-5.76,0-7.86-3.36-8.29-6.45h1.84Z"/>
    </g>
  </g>
</svg>